<?xml version="1.0" encoding="utf-8"?>
<!-- Generator: Adobe Illustrator 28.0.0, SVG Export Plug-In . SVG Version: 6.00 Build 0)  -->
<svg version="1.1" id="Layer_1" xmlns="http://www.w3.org/2000/svg" xmlns:xlink="http://www.w3.org/1999/xlink" x="0px" y="0px"
	 viewBox="0 0 148 32" style="enable-background:new 0 0 148 32;" xml:space="preserve">
<style type="text/css">
	.st0{fill:#FFFFFF;}
</style>
<g>
	<path class="st0" d="M106.6,11.1v3.4h-2.1v2.2h2.1v7.5c0,2.5,1.2,3.6,4.1,3.6c0.5,0,1,0,1.4-0.1v-2.2c-0.3,0-0.7,0.1-1,0.1
		c-1.3,0-1.9-0.6-1.9-2v-6.8h2.9v-2.2h-2.9v-3.3H106.6z"/>
	<path class="st0" d="M119.6,27.9c3.9,0,6.3-2.6,6.3-6.9s-2.4-6.9-6.3-6.9s-6.3,2.6-6.3,6.9S115.7,27.9,119.6,27.9z M119.6,25.5
		c-2.3,0-3.6-1.7-3.6-4.5s1.3-4.5,3.6-4.5s3.6,1.7,3.6,4.5S121.9,25.5,119.6,25.5z"/>
	<path class="st0" d="M128,27.6h2.6v-7.8c0-1.7,1.4-3.1,3.1-3.1c0.1,0,0.2,0,0.2,0c0.5,0,1,0.1,1.5,0.1v-2.6
		c-0.4-0.1-0.8-0.1-1.2-0.1c-1.6-0.1-3,0.8-3.6,2.2h-0.2v-2H128V27.6z"/>
	<path class="st0" d="M142,16.4c1.8-0.1,3.2,1.3,3.3,3.1c0,0.1,0,0.2,0,0.3h-6.8C138.5,17.9,140,16.4,142,16.4
		C141.9,16.3,142,16.3,142,16.4z M145.3,24c-0.6,1.1-1.9,1.8-3.2,1.6c-2.1,0-3.5-1.5-3.6-3.8v-0.1h9.4v-0.9c0-4.1-2.2-6.7-6-6.7
		s-6.2,2.7-6.2,6.9s2.4,6.8,6.2,6.8c3,0,5.2-1.5,5.8-3.8L145.3,24z"/>
	<path class="st0" d="M89.3,22.7c0.2,3.3,2.9,5.3,7,5.3c4.3,0,7.1-2.2,7.1-5.6c0-2.7-1.6-4.2-5.3-5.1l-2-0.5
		c-2.4-0.5-3.4-1.3-3.4-2.6c0-1.6,1.5-2.7,3.8-2.7s3.6,1,3.9,2.7h2.8c-0.2-3.1-2.9-5.2-6.6-5.2c-4,0-6.7,2.2-6.7,5.4
		c0,2.7,1.5,4.2,4.8,5L97,20c2.4,0.6,3.5,1.4,3.5,2.8c0,1.6-1.7,2.8-4,2.8c-2.5,0-4.2-1.1-4.4-2.8L89.3,22.7z"/>
	<path class="st0" d="M62,14.2c-1.7,0-3.4,0.9-4.2,2.4h-0.2v-2.2H55V32h2.6v-6.4h0.2c0.8,1.5,2.5,2.4,4.2,2.2c3.4,0,5.5-2.6,5.5-6.8
		S65.4,14.2,62,14.2z M61.2,25.5c-2.2,0-3.6-1.7-3.6-4.5s1.4-4.5,3.6-4.5s3.5,1.7,3.5,4.5S63.5,25.5,61.2,25.5L61.2,25.5z"/>
	<path class="st0" d="M76.7,14.2c-1.7,0-3.4,0.9-4.2,2.4h-0.2v-2.2h-2.5V32h2.6v-6.4h0.2c0.8,1.5,2.4,2.3,4.1,2.2
		c3.4,0,5.5-2.6,5.5-6.8S80.1,14.2,76.7,14.2z M76,25.5c-2.2,0-3.6-1.7-3.6-4.5s1.4-4.5,3.6-4.5s3.6,1.7,3.6,4.5S78.2,25.5,76,25.5z
		"/>
	<path class="st0" d="M50.3,27.6h3L46.7,9.4h-3.1L37,27.6h2.9l1.7-4.8h7L50.3,27.6z M45,12.7h0.2l2.7,7.7h-5.5L45,12.7z"/>
</g>
<g>
	<path class="st0" d="M22.5,17c0.1-2.5,1.4-4.8,3.6-6.1c-1.4-1.9-3.7-3.1-6.1-3.2c-2.6-0.3-5,1.5-6.3,1.5s-3.3-1.4-5.5-1.4
		c-2.8,0.1-5.4,1.6-6.8,4C-1.5,16.7,0.6,24,3.5,28c1.4,1.9,3.1,4.1,5.2,4s2.9-1.3,5.4-1.3s3.3,1.3,5.5,1.3s3.7-2,5.1-3.9
		c1-1.4,1.8-3,2.3-4.6C24.3,22.4,22.6,19.9,22.5,17z"/>
	<path class="st0" d="M18.4,5.1c1.2-1.4,1.8-3.3,1.7-5.1c-1.9,0.2-3.6,1.1-4.9,2.4c-1.2,1.3-1.9,3.1-1.7,4.9
		C15.4,7.4,17.2,6.6,18.4,5.1z"/>
</g>
</svg>
