<?xml version="1.0" encoding="UTF-8"?>
<svg id="Layer_1" data-name="Layer 1" xmlns="http://www.w3.org/2000/svg" version="1.1" viewBox="0 0 347.6 256.4">
  <defs>
    <style>
      .cls-1 {
        fill: #0ba1dc;
      }

      .cls-1, .cls-2 {
        stroke-width: 0px;
      }

      .cls-2 {
        fill: #fff;
      }
    </style>
  </defs>
  <g>
    <g>
      <path class="cls-1" d="M193.4,40.6c-.5,0-1,0-1.5,0,3.6,4.1,3.3,11.6,3.3,11.6-2.6-6.4-11.5-9.3-11.5-9.3,1.8-3.2-1.3-7.9-5.2-7.9,2.3-10.2-5.8-19.6-15.9-20.6-7.9-.8-15.1,4.4-17.3,11.9,14.3,2.7,13.2,12.4,13.2,12.4-8-8.4-19.8-7.7-30.2-5.7-1.1-1.9-2.5-3.7-4.2-5.1-3.6-3-8.3-4.8-13.2-5.4-6.8-.6-11.2,2.2-14.1,6.2,13.9-1.9,17.7,10.7,17.7,10.7-7.5-6.9-13.9-6.9-19-5.8-5.5,1.2-9.9,5.1-11.2,9.4-.9,3.2.7,6.6,3.1,8.9-8.1-2.3-17.5-1.4-22.8,5.6,8.6-3.2,14.3,2.4,14.3,2.4-12,2.4-25.5,6.6-30.3,19.3,0,0-5.2-9.4,8-18.2-5.5-6.7-14.9-8.8-22.5-4.6-9,5-12.1,20-7.3,29.6-5.6.8-12.5,4.1-14.6,14.9-3.1,16.3,9.5,25,9.5,25,0,0,6.6-12.3,18.6-9.5,0,0,0,.1,0,.2-4.7,1.3-9.7,4.5-11.4,7.6-6.5,12,3.6,21.7,6.5,22.7,0,0-4.4,3.3-2.6,9,1.4,4.6,5.4,5.9,8.3,6.1-.2-1-.3-2-.3-3,0,0,0,0,0-.1-1.1-10.3-.7-33.8,0-36.5.1-.5.3-.9.4-1.4.4-1.3,1-2.6,1.6-3.7.2-.4.4-.8.7-1.2.3-.6.7-1.1,1.1-1.6.2-.3.5-.6.7-.9,1.8-2.3,3.5-3.8,4.4-4.4.7-.5,1.4-1.1,2.1-1.7,1.6-1.3,3.3-2.7,5.1-4.2,4.8-4.1,10.1-8.6,14.5-11.4,14.7-9.4,26.5-11.8,33.2-12.2.4,0,1.7,0,3.7-.1,7.1-.2,23.3-.6,39.8-.9,11.6-.2,23.3-.3,32.4-.3,2.6,0,5,0,7.1,0,2.2,0,4.1,0,5.5.1,5.8.2,10.8.7,15.2,1.5,5.2.9,9.6,2.1,13.5,3.7,1.2-2,2-4.5,1.2-7.7-.5-2.1-1.5-3.7-2.9-4.8h25.6s.5-4.9.5-4.9l-33.4-6.8c-1.1-8.5-6-17.9-19.7-18.9ZM150.7,58.2c-2.8.5-5,2.7-5.5,5.5l-.8,4.6-.8-4.6c-.5-2.8-2.7-5-5.5-5.5l-4.6-.8,4.6-.8c2.8-.5,5-2.7,5.5-5.5l.5-3,.3-1.5.3,1.6.5,3c.5,2.8,2.7,5,5.5,5.5l4.3.7h.2s-.2,0-.2,0l-4.3.7Z"/>
      <path class="cls-1" d="M259.1,49.7c-2.5,0-4.4,2-4.4,4.4s2,4.4,4.4,4.4,4.4-2,4.4-4.4-2-4.4-4.4-4.4Z"/>
      <path class="cls-1" d="M137.9,14.3c4,0,7.2-3.2,7.2-7.2s-3.2-7.2-7.2-7.2-7.2,3.2-7.2,7.2,3.2,7.2,7.2,7.2Z"/>
      <path class="cls-1" d="M8.3,74.9c-1.9,0-3.4,1.5-3.4,3.4s1.5,3.4,3.4,3.4,3.4-1.5,3.4-3.4-1.5-3.4-3.4-3.4Z"/>
      <path class="cls-1" d="M221,43.8l1.4,8.5,1.4-8.5c.9-5.3,5-9.4,10.3-10.3l8.5-1.4-8.5-1.4c-5.3-.9-9.4-5-10.3-10.3l-1.4-8.5-1.4,8.5c-.9,5.3-5,9.4-10.3,10.3l-8.5,1.4,8.5,1.4c5.3.9,9.4,5,10.3,10.3Z"/>
      <path class="cls-1" d="M57.1,42.7l.6,3.8.6-3.8c.4-2.4,2.2-4.2,4.6-4.6l3.8-.6-3.8-.6c-2.4-.4-4.2-2.2-4.6-4.6l-.6-3.8-.6,3.8c-.4,2.4-2.2,4.2-4.6,4.6l-3.8.6,3.8.6c2.4.4,4.2,2.2,4.6,4.6Z"/>
      <path class="cls-1" d="M288,92.9c-2.7-.5-4.9-2.6-5.4-5.4l-.8-4.4-.8,4.4c-.5,2.7-2.6,4.9-5.4,5.4l-4.4.8,4.4.8c2.7.5,4.9,2.6,5.4,5.4l.8,4.4.8-4.4c.5-2.7,2.6-4.9,5.4-5.4l4.4-.8-4.4-.8Z"/>
    </g>
    <g>
      <path class="cls-2" d="M328.8,186.7c11.2-10.1,15.7-28,13.2-53.2-1.2-12.9-4.1-24.5-5.7-30.4l1.3-.7c.6-.3,1.2-1.2.4-2.6-.9-1.7-4.8-10.1-6-13.1-.3-.8-.6-1.5-.8-2.1-.5-1.3-.1-2.8.9-3.7l2.1-2.1c.5-.5.5-1.3,0-1.8l-2.5-2.4c-.2-.2-.5-.3-.8-.4l-18.9-2.1-16.1-1.8c-.9,0-1.8,0-2.6.2l-2.6.7c-.3,0-.6.3-.8.6l-14.1-1.9c0-.4-.3-.8-.7-.9l-27.3-4.4c-.5,0-.9.3-1,.8v.5c0,0,0,.3,0,.3l-.5,4.9v.7c0,0,0,0,0,0,0,.5.3.9.8,1l27.6,1.6c.4,0,.8-.3.9-.7l14.1,1.9c.1.3.3.6.6.8l2.4,1.3c.8.4,1.6.7,2.5.8l13,1.4,5.6,13.8c.5,1.3,2,2.2,3.8,2.3l13.4.6c0,0,0,.1,0,.2,0,.2,0,.5,0,.9,0,.5,0,6,0,6.5,0,.1,0,.3,0,.3-.2,1,.9,1.2,1.8.7l1.4-.8c4,15,14.2,61.1-6.9,80-8.5,7.7-19,8.6-29.2,8.1,3-2.5,5.4-6.4,6.9-11.2,2.3-.3,4.4-.5,6.3-.8,5.3-.8,9.2-3.3,11.9-7-.3,0-.6,0-.9.1-5.2.6-11.7,1.3-11.7,1.3,0,0,4.2-2.1,8.5-4.4.5-.3.9-.5,1.4-.8,3.6-2,5.5-4.8,6.8-6.9.2-1,.3-2.1.4-3.1-.3.1-.7.2-1,.2-2.3,0-4.1-2.9-4.1-6.4s1.8-6.4,4.1-6.4.3,0,.4,0c-1-3.5-3.6-8.3-6.7-13,.6,2.7.6,5.2,0,6.8-2,4.9-8.1,5.9-22,7.2-2.2.2-4.6.4-7.2.7-1.7.2-3.5.3-5.4.5-1.2.1-2.5.2-3.9.3-3,.2-6.2.4-9.6.5-3.2.1-6.5.2-9.9.3-11,.2-21.9.1-29.4,0-5.4,0-10.3-2.8-13.1-7.2-1.6-2.6-4-6.9-7.3-10.9-3.2-3.9-7.3-7.6-12.4-8.9-4.7-1.2-12.5-2.3-20-3.1-4.5-.5-8.8-.9-12.3-1.1-3.1-.2-4.5-.3-4.5-.3-.9,0-1.7,0-2.5-.2-.1,0-.2,0-.2,0,0,0,0,0,.1,0-3.5-.6-6.3-2.4-8.7-4.5-7.3-7.6-10.5-15.2-16.6-25.7-1.9-3.3,2.5-4,8-4.3,1.6,0,3.2-.1,4.8-.2,8.3-.3,16.6-.7,24.9-.9,5.8-.1,11.5-.2,17.1-.1,2.3,0,4.6,0,6.9.2,3.3.1,6.6.4,9.8.8,4.2.5,8.5,1.3,12.8,2.6,6,1.7,12.3,4.4,19.2,8.3,1.5.7,3.2,1.5,4.9,2.3-3.6-2.6-6.8-5-9.2-6.6-3.9-2.8-7.9-5.1-12.4-6.9-3.9-1.6-8.3-2.8-13.5-3.7-4.4-.8-9.4-1.3-15.2-1.5-1.5,0-3.3-.1-5.5-.1-2.1,0-4.5,0-7.1,0-9.1,0-20.8.1-32.4.3-16.6.3-32.7.7-39.8.9-2,0-3.4.1-3.7.1-6.6.4-18.4,2.8-33.2,12.2-4.4,2.8-9.7,7.3-14.5,11.4-1.8,1.5-3.5,2.9-5.1,4.2-.7.6-1.4,1.1-2.1,1.7-.9.6-2.6,2.1-4.4,4.4-.2.3-.5.6-.7.9-.4.5-.7,1.1-1.1,1.6-.2.4-.5.8-.7,1.2-.6,1.1-1.1,2.4-1.6,3.7-.1.4-.3.9-.4,1.4-.7,2.7-1.1,26.2,0,36.5,0,0,0,0,0,.1,0,1,0,2,.3,3,.3,1.6.8,3,1.5,4.4,1.1,1.9,3.5,3.7,6.4,5.2,2.4,5.2,6,8.9,10.3,10.1h0s.3,0,.3,0c.6.2,1.2.3,1.8.3l87.4,16.3c1.7.7,3.5,1.1,5.4,1l178.3-3.2-19.5-1.8c5.5-1.2,10.8-3.5,15.5-7.8ZM317.6,94.5c-1.8,0-3.2-1-3.7-2.3l-4.5-11.9,3.6.4c1.2,2.2,2.6,4.4,3.3,4.5.4,0,3-.2,4,1.2.4.5,2.8,3.6,1.8,6.2-.5,1.2,1,.4,1.5-.6.8-1.7.7-2.3-.1-4.6-.8-2.3-.8-3.3,0-3.7.4-.2,1.8-.5,2.4,1.1.7,2.1,2.8,7.1,4,10-3.8,0-9-.2-12.3-.3ZM140.7,183.5c-.3-.6-.5-1.3-.7-2-1-3.1-1.6-6.6-1.6-10.3,0-1.4,0-2.7.2-4.1,1.5.6,3.4,1.1,5.5,1.3.1,0,.3,0,.4,0,0,.9,0,1.9,0,3,0,1.6.3,3,.8,4.4-.4.4-.9.8-1.2,1.3-1.2,1.5-2.1,3.1-2.6,4.4-.3.8-.5,1.4-.7,2ZM46.4,149c0-.8,0-1.7,0-2.5,0-2.1.2-4.4.5-6.7,0-.4.1-.9.2-1.3.7-3.9,3.1-7.3,6.2-9.5,2-1.5,4.4-2.4,6.7-2.6.7,0,1.4,0,2,0,4.3,0,8.3,1.1,11.6,4.4,2.1-2.5,6.1-5.7,13.4-5.8,21.9-.4,51.3,3.7,51.3,3.7,0,0-23.9-1.2-38.8.7-5.4.7-9.4,2.2-12.5,4-4,2.4-6.3,5.4-7.7,7.8.4,1.4.7,2.7.9,4.1.2,1.7.3,3.3.3,4.9,0,2.5-.3,4.7-.7,6.6-.7,3.6-1.8,5.9-1.8,5.9,0,0,0-8.5-2-16.4,0-.1,0-.3-.1-.4-.8-3.1-2-6-3.6-8.3-1.1-1.6-2.3-2.9-3.6-4-.7-.6-1.3-1-2-1.5-1.2-.7-2.5-1.3-3.7-1.6-4.4-1.2-8.7-.1-11,2.3-3.2,3.2-4.6,7.9-5.2,12.8-.2,1.7-.3,3.3-.3,5,0,.8,0,1.7,0,2.5,0,.8,0,1.6.2,2.4,0,0,0-.7-.2-2,0-1.1-.2-2.5-.2-4.2ZM162.6,182.3c0-1.4-.5-2.8-1.4-3.5-.1,0-.3-.2-.4-.3.3-1,.6-2,.8-3.2,1.3,1,3-.3,3.9-1.3-.3,3-.9,5.7-1.8,8.2-.3.9-.7,1.8-1.1,2.6,0-.7.1-1.7,0-2.7ZM146.6,156.9c-1.1-1.3-2.4-2.2-3.7-2.8.8-1.1,1.6-2.1,2.5-3,2.3-1.2,5.1-1.8,8-1.9-1.4,1.5-2.4,4.5-2,6.6,0,.4.1.8.2,1.2-1.2.4-2.4,1.1-3.5,2.2-.5-.8-1-1.6-1.5-2.3ZM161.6,166c-.3-1.9-.9-3.7-1.6-5.1.5-.9,1-1.9,1.4-2.9.3-.9.5-1.8.7-2.6,1.4,2.6,2.5,5.7,3.1,9.1-.5.1-1,.3-1.5.5-.8.3-1.4.6-2,1ZM172.3,150.9c.9,2.7,1.2,5.9,1.2,9,0,3.2-.2,6.4-.5,8.8-.3,2.6-.7,4.3-.7,4.3-.3-7.1-1.2-13.3-3.4-18.3-1-2.4-2.4-4.6-4.1-6.4-2.3-2.6-4.9-4.5-7.6-5.8-.3-.1-.6-.3-.9-.4-6.3-2.7-13-1.8-18,3.3-5.1,5.2-6.5,17.1-5.2,26.7,0,0-1.7-7.3-1-16,1-12.6,9.2-19.6,17.2-20.7,6.1-1.1,13.1.3,18.2,6.5,1.9,2.3,3.6,5.3,4.8,9.1ZM69.3,164.1c-.2-.2-.5-.3-.7-.4.3-.9.6-1.8.7-2.8.1,0,.2.2.3.3,1.1.9,2.6-.3,3.4-1.1-.4,3.5-1.3,6.8-2.6,9.5.2-1.6.3-4.3-1.2-5.4ZM72.8,151.6c-.4.1-.9.2-1.3.4-.9.3-1.6.7-2.2,1.1-.3-1.6-.7-3-1.3-4.3.2-.3.4-.7.6-1,.3-.6.7-1.3.9-2,.3-.8.5-1.5.6-2.2.6,1.1,1.1,2.2,1.6,3.5.5,1.4.9,2.9,1.1,4.5ZM55.8,139.5c1.7-.3,3.7-.4,5.7-.1,0,0,.1,0,.2,0-.7,1.4-1.2,3.2-1,4.5,0,.5.2,1.1.3,1.6-1,.3-2,.9-3,1.8-.2-.3-.4-.7-.6-1-.3-.5-.7-1-1-1.4-1-1.1-2.1-1.9-3.2-2.4.8-1.1,1.6-2.1,2.6-2.9ZM92.8,173.8l-5.9-1.4-9.5-2.2.9-1.7,8.4,1.4,7.5,1.3,37.8,6.4,1.3.2.7,3.5.4,1.9-2.9-.7-7.1-1.6-31.6-7.2ZM257.7,159c1,0,2.1,0,3.2,0,1.6,0,3.3-.1,5-.2,1.4,0,2.8-.1,4.2-.2.7,0,1.4,0,2.2,0,2.2,0,4.5-.2,6.7-.3.2,0,.4,0,.7,0,2.3-.1,4.6-.3,6.9-.4,5.8-.4,11.4-.9,16.5-1.4.1,0,.3,0,.4,0,1.5-.2,3-.4,4.5-.6,3.5-.5,6.6,2.3,6.6,5.8,0,1.4-.6,2.6-1.4,3.6-.9,1-2.2,1.8-3.6,2-1,.1-2.1.3-3.3.4-4.5.5-10.5,1.2-17.3,1.8-2.1.2-4.3.4-6.5.5-2.1.2-4.3.3-6.6.4,0,0,0,0,0,0-.1,0-.2,0-.4,0,0,0-.1,0-.2,0,0,0,0,0,0,0-.9,0-1.8,0-2.6.1-.7,0-1.3,0-2,0-1,0-2,0-3.1.1-2.9,0-5.8.2-8.8.2-.9,0-1.8,0-2.7,0-4.1,0-8.2-.1-12.1-.3,0,0,4.9-.2,12.2-.7.9,0,1.8-.1,2.7-.2,2.4-.2,5-.4,7.7-.6.4,0,.8,0,1.2-.1.8,0,1.5-.1,2.3-.2.1,0,.2,0,.4,0,.1,0,.3,0,.4,0,.3,0,.6,0,.9,0,.3,0,.6,0,.9,0,.7,0,1.4-.1,2.1-.2.3,0,.7,0,1-.1.6,0,1.2-.1,1.8-.2,1.6-.2,3.3-.4,4.9-.6,2.2-.3,4.4-.5,6.5-.9,4.5-.6,8.8-1.4,12.5-2.2,0,0-5.1.3-12.7.7-2,0-4.3.2-6.6.3-2.2,0-4.6.2-7,.3-.1,0-.3,0-.4,0-.6,0-1.1,0-1.7,0-.1,0-.3,0-.4,0-.9,0-1.9,0-2.8,0-.3,0-.6,0-.9,0-3.2.1-6.5.2-9.7.3-.9,0-1.9,0-2.8,0-6.1,0-11.9.1-16.8,0,0,0,7.3-.5,16.9-1.2.9,0,1.9-.1,2.9-.2,3-.2,6.3-.5,9.5-.7,1,0,2.1-.2,3.1-.2.2,0,.4,0,.5,0,1.5-.1,3-.2,4.4-.3,1.6-.1,3.1-.2,4.6-.4,2.3-.2,4.5-.4,6.6-.5,5.7-.5,10.6-.9,13.5-1.3h-44.4c-11.4,0-24.5-1.6-24.5-1.6,0,0,10.8,0,25.1-.3ZM239.3,179.6s-38.7.2-42.4-.2c-1.4-.2-3-1.8-4.4-3.9-2.2-3.3-4-7.6-4.4-9.4,0,0,2.2-.5,4.7.6.6.3,1.1.6,1.7,1,2.3,1.9,5.7,6.2,13.4,7.8,7.7,1.6,31.4,4,31.4,4ZM215.7,162.3c0,3.5-1.8,6.4-4.1,6.4s-4.1-2.9-4.1-6.4,1.8-6.4,4.1-6.4,4.1,2.9,4.1,6.4ZM67.9,104.3c0,0,.2-.2.2-.3,5.2-5.9,8.8-8.2,19.2-13.4,5.7-2.9,13.9-5.2,18-5.6.9,0,1.9-.2,3.1-.2,3-.1,6.5-.2,8.7,0,6.6.3,9.8,2.2,11.6,6.3,2.4,5.8,3.3,9.8,4.5,16,0,0,0,0,0,0-1.8-3.7-6-5.6-10.5-5.5-4.2,0-9.1,1-10.4,3.5.9,0,1.9.1,3.1.2,7.1.5,9.3,2.9,9.3,2.9,0,0-7,.3-13,0,0,2.5,1,5.1,3.7,6.4,1.9.9,14.4,1.1,17.2,2.4.6.3,1.2.6,1.8,1-.4.5-1.2.8-2,.7,0,0-44.5-3.4-59.1-7.1-.8-.2-1.5-.4-2.2-.7-6-2.2-4-5.5-3.2-6.4ZM49.2,158.3c0-.3,0-.6,0-.8,0-1.2,0-2.4.2-3.5,1.3.5,3,1,4.9,1.1.3,0,.5,0,.8,0,0,.5,0,1.1,0,1.7,0,.3,0,.5,0,.8,0,1.3.3,2.5.6,3.6-.5.4-1,.9-1.4,1.4-1.7,2.1-2.6,4.3-2.9,5.6-1.2-2.9-1.9-6.3-2-10ZM54.6,173.9c0,0-.1-.1-.2-.2,1.8-1.6,3.9-3.8,4.9-6,0-.1,0-.2.1-.3,1.2,1,2.5,1.6,3.6,1.6,0,0,0,0,0,0,0,.8.1,1.5.3,2.1.3,1.3,1.2,3,1.9,4.4-.6.4-1.2.7-1.9,1-.1,0-.3,0-.4.1-.6.2-1.3.3-1.9.3-2.4,0-4.7-1.1-6.6-3ZM87.1,179.7c0,0,.2-.1.3-.2.5,0,.9,0,1.4.2.2,0,.4,0,.6.1h-2.2ZM154.4,193.1c-.7.2-1.4.3-2.2.4-2.8,0-5.5-1.3-7.7-3.7,1.2-1.1,2.5-2.4,3.6-3.8.7-.9,1.4-1.9,1.8-2.9,1.5,1.2,3,1.9,4.4,2,0,0,0,0,.1,0,0,.5.1,1,.2,1.5,0,0,0,.1,0,.2.4,1.5,1.4,3.4,2.2,5.1-.8.5-1.7,1-2.6,1.2ZM235.8,187.2c8.2-.6,15.9-1.1,23.1-1.7.7,1.5,1.5,2.8,2.3,4.1l-25.4-2.4Z"/>
      <path class="cls-2" d="M261.4,104.6c-2.3-2.1-6.2-2.7-11-2.4,4.4,3.2,8.9,6.5,12.7,9.3,1.1-1.6.7-4.6-1.7-6.9Z"/>
      <path class="cls-2" d="M236.7,118.8c12.9,2.8,19.1,14.4,19.1,14.4,0,0-4.1-4.6-11.6-8.8-6.4-3.6-15.5-4.8-21.7-5.1-9.5.3-17.7.5-24.7.5,14.8,1.8,24.8,9.5,30.5,14.5,1.5,1.3,2.7,2.5,3.7,3.3,4.9,4.2,11.2,6.5,17.8,6.7,10.3.3,24.7.5,32.7-.2.6,0,1.1-.1,1.6-.2,12.2-1.5,28.4-1.1,28.5-11.5,0-8.4-6-12.4-9-13.9-9.6-2.7-26.5-.9-30.5-.4-.3,0-.6.1-.8.1,0,0-1.6,0-6.6,0,12.5,3,18.5,14.3,18.5,14.3,0,0-4.1-4.7-11.6-8.8-6.9-3.8-16.1-4.9-22.8-5.3-3.8,0-8.2.2-13.2.4Z"/>
    </g>
  </g>
  <g>
    <path class="cls-1" d="M33.3,246.1c0,3.6-.8,6.2-2.4,7.8-1.6,1.6-4.2,2.4-7.8,2.4h-12.8c-3.6,0-6.2-.8-7.8-2.4-1.6-1.6-2.4-4.2-2.4-7.8v-16.4c0-3.6.8-6.2,2.4-7.8,1.6-1.6,4.2-2.4,7.8-2.4h12.8c3.6,0,6.2.8,7.8,2.4,1.6,1.6,2.4,4.2,2.4,7.8v16.4ZM24.1,229.7c0-2-1-3.1-3.1-3.1h-8.7c-2,0-3.1,1-3.1,3.1v16.4c0,2,1,3.1,3.1,3.1h8.7c2,0,3.1-1,3.1-3.1v-16.4Z"/>
    <path class="cls-1" d="M65.6,255.3c-7.6.7-13.9,1-19,1s-5.8-.8-7.4-2.4c-1.6-1.6-2.4-4-2.4-7.4v-16.4c0-3.6.8-6.2,2.4-7.8,1.6-1.6,4.2-2.4,7.8-2.4h18.4v7.2h-16.4c-2,0-3.1,1-3.1,3.1v16.4c0,.8.2,1.4.7,1.9s1,.7,1.8.7,1.5,0,2.4,0c.9,0,1.7,0,2.7,0,.9,0,1.9,0,2.8-.1.9,0,2.2-.1,3.6-.2s3.3-.2,5.6-.4v6.9Z"/>
    <path class="cls-1" d="M97.7,255.8h-28.4v-35.9h28.4v7.2h-19.2v6.9h15.1v7.2h-15.1v7.4h19.2v7.2Z"/>
    <path class="cls-1" d="M109.8,255.8h-10l13.6-35.9h10.2l13.6,35.9h-10l-2.3-6.4h-12.8l-2.3,6.4ZM114.4,242.8h8.2l-4.1-12-4.1,12Z"/>
    <path class="cls-1" d="M171.5,255.8h-9.7l-12.3-21.5v21.5h-9.2v-35.9h9.7l12.3,21.5v-21.5h9.2v35.9Z"/>
    <path class="cls-1" d="M176.2,248.4c9.4.5,15.7.8,19,.8s1.4-.2,1.9-.7.7-1.1.7-1.9v-4.6h-11.8c-3.6,0-6.2-.8-7.8-2.4-1.6-1.6-2.4-4.2-2.4-7.8v-1.5c0-3.6.8-6.2,2.4-7.8s4.2-2.4,7.8-2.4h18v7.2h-15.9c-2,0-3.1,1-3.1,3.1v1c0,2,1,3.1,3.1,3.1h9.2c3.3,0,5.8.8,7.4,2.4,1.6,1.6,2.4,4,2.4,7.4v2.6c0,3.3-.8,5.8-2.4,7.4-1.6,1.6-4,2.4-7.4,2.4s-3.6,0-5.5-.1l-4.7-.2c-3.5-.2-7.1-.4-10.8-.7v-6.9Z"/>
    <path class="cls-2" d="M248.9,255.1c-8,.9-15.3,1.3-22,1.3s-5.8-.8-7.4-2.4c-1.6-1.6-2.4-4-2.4-7.4v-16.4c0-3.6.8-6.2,2.4-7.8s4.2-2.4,7.8-2.4h18.4v7.2h-16.4c-2,0-3.1,1-3.1,3.1v16.4c0,.8.2,1.4.7,1.9s1.1.7,1.9.7c3.9,0,7.5,0,10.8-.3v-7.4h-6.7v-6.1h15.9v19.7Z"/>
    <path class="cls-2" d="M260.9,255.8h-10l13.6-35.9h10.2l13.6,35.9h-10l-2.3-6.4h-12.8l-2.3,6.4ZM265.6,242.8h8.2l-4.1-12-4.1,12Z"/>
    <path class="cls-2" d="M305.3,255.8h-9.2v-28.7h-10.8v-7.2h30.7v7.2h-10.8v28.7Z"/>
    <path class="cls-2" d="M347.6,255.8h-28.4v-35.9h28.4v7.2h-19.2v6.9h15.1v7.2h-15.1v7.4h19.2v7.2Z"/>
  </g>
</svg>